# xmcd
#
# Track frame offsets:
# 150
# 50872
# 87034
# 125836
# 154465
# 179180
# 217506
# 251662
# 273535
# 297988
#
# Disc length: 4577 seconds
#
#
# Revision: 0
# Processed by: cddbd v1.5.2PL0 Copyright (c) Steve Scherf et al.
# Submitted via: FreeRIP 2.945 
#
DISCID=9f11df0a
DTITLE=Herriot-J1977 - Wise-Wonderful07
DYEAR=1977
DGENRE=Jungle
TTITLE0=WW 0701
TTITLE1=WW 0702
TTITLE2=WW 0703
TTITLE3=WW 0704
TTITLE4=WW 0705
TTITLE5=WW 0706
TTITLE6=WW 0707
TTITLE7=WW 0708
TTITLE8=WW 0709
TTITLE9=WW 0710
EXTD=All Things Wise and Wonderful 12 CDs\nby James Herriot - read by Christopher Timothy\nRennasance Audio - Jungle Country
EXTT0=
EXTT1=
EXTT2=
EXTT3=
EXTT4=
EXTT5=
EXTT6=
EXTT7=
EXTT8=
EXTT9=
PLAYORDER=
